@startuml

' hide the spot
hide circle

' avoid problems with angled crows feet
skinparam linetype ortho

skinparam class {
BackgroundColor LightYellow
}

entity box {
*transaction_id : String
*output_index : u16
--
*asset_class : String
*creation_time : String
*address : String
security_root : String
metadata : String
consuming_transaction_id : String
input_index : u16
}

entity transaction {
*transaction_id : String
--
*creation_time : String
*input_count : u16
*output_count : u16
}

transaction ||--|{ box : inputs
transaction ||--|{ box : outputs
@enduml
